<svg xmlns="http://www.w3.org/2000/svg" viewBox="0 0 657 194.1">
<path fill="#fff" d="M610.7 179.2l-20.4-21.5H588v35.7h7.2v-21l20.3 21.7h2.4v-35.7h-7.2v20.8zm-55.3-20.8v35.1h24.2V187h-17.1v-8.9h12.1V172h-12.1v-7.1H579v-6.5h-23.6zm-17.3 35h7.2v-35.1h-7.2v35.1zm-27.4-28.6c7.2 0 11.8 4.1 11.8 11 0 3.4-1.1 6.1-3.2 8.1-2.2 2-5 3-8.6 3h-4.3v-22.1h4.3zm-11.4-6.4v35.1h11.5c5.6 0 10.2-1.6 13.8-4.9 3.6-3.3 5.4-7.5 5.4-12.7 0-5.3-1.8-9.5-5.3-12.7-3.6-3.2-8.1-4.8-13.8-4.8h-11.6zm-32.6 0v35.1h24.2V187h-17.1v-8.9h12.1V172h-12.1v-7.1h16.4v-6.5h-23.5zm-27.4 18.3l-14.8-19h-2.3v35.7h7.2v-18.8l8.8 11.1h2.3l8.8-11.1v18.8h7.2v-35.7h-2.3l-14.9 19zM229.7 113.7c-11 0-11-7.9-11-13.1V60.5h-28.2v41.1c0 23.9 21.3 28.9 39.2 28.9 17.9 0 39.1-5 39.1-28.9V60.5h-28.2v40.1c.1 5.2.1 13.1-10.9 13.1M353.7 103.4c-1.9 8.8-10.8 11.1-17 11.1-12.2 0-18.8-9.3-18.8-18 0-9.6 6.9-21.1 20.1-21.1 5.4 0 10.2 2.2 13.9 6.8l24.3-7.3c-7.6-9.6-24.9-15.5-39.5-15.5-28.3 0-47.3 14.5-47.3 36.1 0 20.7 19.4 35.1 47.1 35.1 13.9 0 27.9-4.8 36.5-12.5 9.1-8.1 9.7-16.6 9.9-27.3h-45.7v12.7h12.5l4-.1zM464.8 103.4c-1.9 8.8-10.8 11.1-17 11.1-12.2 0-18.8-9.3-18.8-18 0-9.6 6.9-21.1 20.1-21.1 5.4 0 10.2 2.2 13.9 6.8l24.3-7.3c-7.6-9.6-24.9-15.5-39.5-15.5-28.3 0-47.3 14.5-47.3 36.1 0 20.7 19.4 35.1 47.1 35.1 13.9 0 27.9-4.8 36.5-12.5 9.1-8.1 9.7-16.6 9.9-27.3h-45.7v12.7h12.5l4-.1zM543.4 113.4V60.5h-28.1v68.8h55.4v-16h-25.1zM589.7 60.5h28.2v68.8h-28.2z"/>
<g fill="#fff" ><path fill="#fff" d="M643.9 59.8h1c1.4 0 2.2-.1 2.6-.2.3-.1.6-.3.8-.6.2-.3.3-.6.3-.9 0-.3-.1-.6-.3-.9-.2-.3-.5-.4-.8-.5-.3-.1-1.2-.2-2.6-.2h-1v3.3zm-2.4 6.7V54.7H647.7c.8.1 1.4.2 1.8.5.4.2.8.6 1.1 1.1.3.5.4 1.1.4 1.7 0 .8-.3 1.6-.8 2.2-.6.6-1.3 1-2.3 1.1.4.1.6.3.8.4.2.2.5.5.8.9.1.1.4.6.9 1.4l1.4 2.4h-2.9l-1-1.9c-.7-1.3-1.2-2.1-1.6-2.4-.4-.3-1-.5-1.7-.5h-.6v4.8h-2.5zM127.7 90.8h-4.2v-17h4.4c3.9 0 11.9 0 11.9 8.6 0 8.4-8.8 8.4-12.1 8.4m22.9 12.5h-.1v-.1c0 .1 0 .1.1.1 11.6-3.2 17.6-10.3 17.6-19.6 0-21-24.5-23.2-35-23.2h-38v68.8h28.3V105l18 24.4h34l-24.9-26.1zM39.4 115.7c-2.8.6-11 .4-11 .4v-15.8s8.2-.2 11 .4c2.8.6 7.1 1.9 7.1 7.5s-4.3 6.8-7.1 7.5m-11-42s6.4-.2 8.6.3c2.2.5 5.6 1.6 5.6 6.3 0 4.7-3.4 5.8-5.6 6.3-2.2.5-8.6.3-8.6.3V73.7zm30.9 19.8c9.2-2.4 11.7-9 11.7-15 0-12.2-10.7-18.1-32.8-18.1H0v68.8h44.6c14.8 0 30.5-4.7 30.5-17.9.1-9.1-6.4-16.4-15.8-17.8"/>
<path fill="#f59f40" d="M251.4 21.6c0 12-9.7 21.6-21.6 21.6-12 0-21.6-9.7-21.6-21.6S217.8 0 229.7 0c12 0 21.7 9.7 21.7 21.6" />
<path fill="#fff" d="M653.6 65c-.8 1.4-1.9 2.5-3.3 3.3-1.4.8-2.9 1.2-4.4 1.2-1.5 0-3-.4-4.4-1.2-1.4-.8-2.5-1.9-3.3-3.3-.8-1.4-1.2-2.9-1.2-4.4 0-1.6.4-3.1 1.2-4.5.8-1.4 1.9-2.5 3.3-3.3 1.4-.8 2.9-1.1 4.4-1.1 1.5 0 3 .4 4.4 1.1 1.4.8 2.5 1.9 3.3 3.3.8 1.4 1.2 2.9 1.2 4.5 0 1.5-.4 3-1.2 4.4m1.9-10c-1-1.8-2.4-3.1-4.1-4.1-1.7-.9-3.6-1.4-5.5-1.4s-3.7.5-5.5 1.4c-1.7 1-3.1 2.3-4.1 4.1-1 1.8-1.5 3.6-1.5 5.6 0 1.9.5 3.8 1.5 5.5 1 1.8 2.3 3.1 4.1 4.1 1.8 1 3.6 1.5 5.5 1.5s3.8-.5 5.5-1.5c1.7-1 3.1-2.3 4.1-4.1 1-1.7 1.5-3.6 1.5-5.5 0-2-.5-3.8-1.5-5.6"/>
</g>
</svg>